<!-- Generated by IcoMoon.io -->
<svg version="1.1" xmlns="http://www.w3.org/2000/svg" width="65" height="64" viewBox="0 0 65 64">
<title>inexorable_fate</title>
<path d="M53.962 29.417c-1.005-3.027-2.521-4.464-5.285-6.076-2.819-1.647-6.756-1.101-9.471 0.626-0.73 0.464-1.37 1.026-2.039 1.567-0.104 0.083-0.538 0.384-0.874 0.627-0.002-0.117 0-0.237-0.005-0.357-0.022-0.546-0.058-1.135-0.136-1.679l-0.264 0.504 0.357-0.869c0.338-1.066 0.272-1.796-0.077-2.812-0.368-1.071-0.13-1.442-0.019-2.62 0.002-0.032 0.005-0.064 0.007-0.093-1.002-0.155 1.674-1.97 2.5-1.879 1.053 0.117 2.105 0.017 3.161-0.029 2.457-0.754 4.869-1.274 7.539-1.274 1.906 0 4.917-3.568 5.023-5.586-2.372 0.213-4.757 0.309-7.124 0.624-2.276 0.304-4.621 0.296-6.924 0.517-0.565 0.096-1.127 0.165-1.697 0.219-0.565 0.091-1.125 0.202-1.679 0.349-1.029 0.272-1.032-0.040-0.653-0.469 0.062-0.658 0.141-1.311 0.216-1.975 0.056-0.506 0.12-1.013 0.12-1.524 0-0.696 0.189-1.471-0.394-0.101 0.541-1.274 0.925-3.182-1.050-3.105-1.786 0.072-3.95 2.305-4.6 3.835-0.445 1.045-0.546 1.983-0.605 2.958 0.069 0.043 0.136 0.077 0.203 0.123 0.677 0.458-2.169 2.3-2.918 1.793-1.719-1.167-3.39-0.6-5.279-0.381-1.543 0.176-3.113 0.043-4.661-0.010-1.778-0.058-3.553-0.112-5.322-0.099-1.474 1.383-2.721 3.489-2.457 4.677 4.277-0.512 8.549-0.208 12.907-0.181 2.188 0.012 6.673-0.912 8.315 0.941 0.208 0.234-0.456 0.839-1.242 1.271 0.024 1.189 0.051 2.393-0.085 3.555-0.203 1.7-0.045 2.683 0.362 4.184-0.37 2.156-0.234 4.309-0.306 6.556-0.082 2.556 3.059 1.068 4.032 0.208 0.144-0.125 0.237-0.216 0.296-0.277 0.141-0.061 0.365-0.168 0.706-0.347 0.331-0.17 0.677-0.354 1.002-0.538 1.013-0.565 1.916-1.346 2.809-2.084 2.063-1.7 4.368-0.557 6.34 0.789 1.986 1.354 2.457 2.798 3.203 5.013 0.114 0.341 0.453 2.577 0.677 3.361-0.152 0.133-0.301 0.266-0.445 0.4-0.528 0.482-0.957 1.162-1.463 1.658 0.16-0.181-0.533 0.261-0.736 0.432-1.052 0.882-1.772 1.908-2.612 2.974-0.426 0.541-0.898 1.053-1.317 1.602-0.024 0.032-1.207 1.522-0.888 1.215-0.903 0.965-1.873 1.868-2.761 2.857 0.581-0.647-0.418 0.381-0.663 0.581-0.062 0.051-0.125 0.096-0.189 0.144-0.629 0.904-1.333 1.751-2.204 2.527-1.831 1.636-3.76 3.051-5.418 4.88-1.604 1.77-3.137 3.537-4.965 5.077 0.002 0.002 0.005 0.004 0.007 0.008 0.059 0.029 0.114 0.059 0.171 0.088 1.026 0.536 2.388-0.012 3.592-0.981 0.965-0.496 2.004-0.903 2.926-1.458 1.687-1.018 3.257-2.308 4.672-3.673 0.192-0.184 0.368-0.421 0.488-0.61 0.6-0.488 1.53-0.909 2.055-1.325 1.402-1.108 2.537-2.404 3.731-3.712 1.007-1.101 2.153-1.983 3.057-3.193 0.53-0.712 1.044-1.41 1.596-2.108 0.24-0.275 0.461-0.568 0.669-0.869 0.056-0.043 0.117-0.091 0.189-0.147 0.624-0.493 1.242-1.013 1.778-1.602 0.12-0.141 0.224-0.264 0.312-0.37 0.397-0.242 0.783-0.504 1.149-0.791 1.514-1.237 2.649-2.846 3.403-4.64 1.268-3.025 0.24-5.932-0.744-8.893z"></path>
</svg>
