<!-- Generated by IcoMoon.io -->
<svg version="1.1" xmlns="http://www.w3.org/2000/svg" width="65" height="64" viewBox="0 0 65 64">
<title>the_circle_undone</title>
<path d="M55.928 41.939c-3.439 2.234-8.847-1.049-11.764-2.857-1.831-1.135-3.384-2.57-4.812-4.138 0.937-0.534 1.876-1.065 2.825-1.572 2.354-1.261 5.474-1.985 8.144-1.88 0.985 0.039 2.482-0.058 3.357 0.419 0.025 0.015 0.049 0.035 0.074 0.050 0.357 0.098 0.703 0.239 1.021 0.423 0.73 0.422 1.295 1.031 1.725 1.752 0.228 0.382 0.378 0.791 0.518 1.205 0.033 0.016 0.063 0.037 0.095 0.052 0.86 2.341 0.859 5.223-1.182 6.548zM61.024 39.853c-0.29-3.948-2.498-8.108-5.492-10.633-0.229-0.193-0.489-0.348-0.743-0.43-0.228-0.172-0.462-0.331-0.715-0.447-0.428-0.196-0.911-0.344-1.391-0.473-1.418-0.57-3.033-0.635-4.544-0.696-3.918-0.158-7.419 1.409-10.771 3.206 0.253 1.263-0.018 2.485-1.851 3.707-1.070 0.534-0.713 1.702-0.059 3.034 0.579-0.308 1.155-0.624 1.73-0.947 1.835 2.133 3.813 4.181 6.063 5.8 3.222 2.319 7.593 4.743 11.664 5.011 4.265 0.282 6.4-3.211 6.112-7.132z"></path>
<path d="M17.584 33.293c-2.285 0.399-4.551 0.464-6.542-0.942-1.967-1.391-3.279-3.602-2.874-6.003 0.452-2.682 1.396-4.083 4.074-4.811 2.624-0.712 4.758-0.74 7.387 0.093 3.786 1.198 6.344 3.393 9.115 5.943-3.382 2.555-6.86 4.97-11.159 5.72zM30.551 29.161c1.636-1.475 1.728-2.723 1.294-3.936-0.378 0.28-0.753 0.562-1.125 0.845-3.203-3.039-6.374-6.116-10.608-7.634-4.19-1.502-8.461-2.211-12.636-0.185-3.032 1.471-3.939 6.389-2.808 9.318 1.443 3.732 4.594 7.447 8.326 9.031 3.775 1.602 8.231 0.974 11.899-0.725 2.168-1.005 4.138-2.303 6.039-3.704-0.841-1.222-1.362-2.326-0.383-3.011z"></path>
<path d="M31.798 37.11c0.247 0.081 0.342 0.28 0.52 0.47 0.673 0.713 1.428 0.177 1.964-0.443-0.188-0.236-0.376-0.473-0.561-0.712 0 0 0 0.001 0 0.001-0.012-0.029-0.036-0.055-0.072-0.081-0.002-0.008-0.007-0.018-0.012-0.028-0.049-0.061-0.096-0.123-0.143-0.184-0.055-0.060-0.112-0.115-0.143-0.147-0.243-0.247-0.486-0.361-0.818-0.382-0.337-0.021-0.67 0.070-0.965 0.235-0.177 0.098-0.359 0.211-0.519 0.342 0.020 0.093 0.046 0.183 0.069 0.274 0.242 0.2 0.46 0.432 0.678 0.654z"></path>
<path d="M33.173 29.731c-0.253-0.059-0.365-0.248-0.56-0.422-0.733-0.652-1.437-0.051-1.918 0.613 0.209 0.218 0.415 0.44 0.621 0.66 0 0 0.001 0 0.001-0.001 0.015 0.027 0.039 0.053 0.078 0.075 0.003 0.008 0.009 0.018 0.014 0.027 0.053 0.057 0.106 0.114 0.16 0.17 0.060 0.055 0.123 0.105 0.155 0.134 0.263 0.226 0.517 0.317 0.848 0.308 0.337-0.008 0.663-0.128 0.941-0.317 0.168-0.113 0.338-0.243 0.487-0.387-0.028-0.090-0.063-0.178-0.094-0.266-0.258-0.178-0.496-0.389-0.732-0.593z"></path>
<path d="M36.455 32.283c-0.007-0.123 0.066-0.196 0.119-0.305 0.202-0.413-0.158-0.655-0.518-0.787-0.072 0.123-0.145 0.243-0.22 0.364h0.001c-0.012 0.010-0.019 0.024-0.024 0.044-0.003 0.002-0.007 0.008-0.010 0.010-0.018 0.031-0.038 0.063-0.057 0.093-0.018 0.035-0.033 0.068-0.042 0.088-0.068 0.147-0.076 0.272-0.031 0.42 0.046 0.151 0.142 0.282 0.262 0.384 0.072 0.061 0.151 0.121 0.236 0.17 0.037-0.023 0.072-0.050 0.108-0.075 0.048-0.139 0.113-0.273 0.175-0.404z"></path>
<path d="M31.209 35.122c-0.007-0.121 0.066-0.196 0.119-0.305 0.202-0.413-0.158-0.654-0.518-0.787-0.072 0.121-0.145 0.243-0.22 0.363h0.001c-0.010 0.010-0.018 0.024-0.023 0.044-0.003 0.002-0.007 0.008-0.010 0.010-0.020 0.031-0.038 0.063-0.057 0.094-0.018 0.034-0.033 0.068-0.040 0.087-0.070 0.147-0.078 0.272-0.033 0.421 0.046 0.151 0.142 0.281 0.262 0.383 0.072 0.061 0.151 0.121 0.235 0.17 0.037-0.023 0.072-0.050 0.108-0.075 0.048-0.139 0.113-0.273 0.175-0.404z"></path>
<path d="M28.326 38.461c0.115 0.037 0.162 0.13 0.247 0.217 0.318 0.329 0.668 0.075 0.917-0.217-0.090-0.11-0.178-0.22-0.266-0.331h-0.001c-0.005-0.012-0.016-0.025-0.034-0.037 0-0.005-0.003-0.009-0.006-0.012-0.022-0.029-0.045-0.058-0.067-0.085-0.027-0.027-0.053-0.053-0.068-0.068-0.114-0.115-0.229-0.166-0.383-0.175-0.157-0.008-0.314 0.037-0.45 0.114-0.083 0.046-0.166 0.1-0.241 0.163 0.009 0.043 0.022 0.085 0.033 0.127 0.115 0.093 0.217 0.2 0.32 0.303z"></path>
<path d="M33.474 26.586c-0.251 0.068-0.44-0.045-0.693-0.105-0.955-0.224-1.289 0.639-1.396 1.452 0.287 0.093 0.573 0.188 0.86 0.284v0c0.027 0.018 0.060 0.027 0.104 0.027 0.005 0.005 0.015 0.012 0.024 0.016 0.074 0.025 0.148 0.051 0.222 0.075 0.079 0.020 0.156 0.035 0.2 0.044 0.385 0.082 0.675 0.020 1.012-0.208 0.223-0.151 0.401-0.361 0.528-0.598 0.098-0.184 0.194-0.386 0.262-0.593-0.064-0.089-0.091-0.128-0.155-0.217-0.326-0.031-0.651-0.109-0.969-0.178z"></path>
<path d="M35.046 25.404c-0.109-0.229-0.589-0.214-1.006-0.298-1.577-0.32 0.127-1.499 1.955-2.485 0.535 0.067 1.077 0.132 1.62 0.193l-0.002 0.002c0.069-0.003 0.13 0.005 0.181 0.030 0.021-0.003 0.044-0.003 0.068-0.003 0.139 0.016 0.28 0.031 0.419 0.049 0.133 0.025 0.254 0.055 0.323 0.072 0.57 0.127 0.755 0.348 0.638 0.745-0.114 0.389-0.518 0.807-1.103 1.263-0.298 0.232-0.629 0.473-0.987 0.706-0.232 0.033-0.456 0.060-0.683 0.089-0.419-0.149-0.933-0.252-1.422-0.361z"></path>
<path d="M33.86 34.465c0.040-0.076 0.284 0.001 0.509-0.055 0.914-0.232 1.544-3.736-1.218-0.989-0.278-0.002-0.558-0.008-0.842-0.013 0.001 0.001 0.001 0.001 0.002 0.001-0.037-0.005-0.069-0.005-0.094 0.001-0.010-0.001-0.023-0.003-0.036-0.005-0.073-0.001-0.145-0.002-0.217-0.003-0.068 0.002-0.13 0.008-0.166 0.010-0.292 0.016-0.372 0.085-0.281 0.235 0.089 0.145 0.334 0.314 0.676 0.507 0.181 0.102 0.383 0.208 0.599 0.313 0.115 0.018 0.226 0.036 0.341 0.054 0.211-0.031 0.474-0.043 0.725-0.057z"></path>
<path d="M40.315 21.805c-0.063 0.001-0.097-0.178-0.209-0.299-0.46-0.492-2.871 0.318-0.2 1.102 0.094 0.175 0.187 0.353 0.281 0.532 0-0.001 0-0.001 0-0.001 0.010 0.024 0.021 0.044 0.033 0.058 0.002 0.008 0.007 0.015 0.010 0.023 0.023 0.046 0.048 0.093 0.072 0.139 0.024 0.042 0.050 0.079 0.063 0.1 0.111 0.175 0.183 0.202 0.244 0.095 0.060-0.105 0.082-0.317 0.084-0.599 0.001-0.139 0-0.29-0.008-0.449-0.027-0.081-0.069-0.203-0.097-0.283-0.089-0.119-0.181-0.272-0.272-0.417z"></path>
<path d="M30.123 36.67c-0.063 0.001-0.097-0.179-0.209-0.299-0.46-0.492-2.871 0.318-0.2 1.102 0.094 0.175 0.187 0.353 0.281 0.531v0c0.009 0.024 0.021 0.044 0.033 0.058 0.002 0.008 0.007 0.015 0.010 0.023 0.023 0.046 0.049 0.093 0.072 0.139 0.025 0.040 0.050 0.078 0.063 0.099 0.111 0.177 0.183 0.203 0.244 0.096 0.060-0.105 0.082-0.317 0.084-0.599 0.001-0.139 0-0.29-0.007-0.449-0.027-0.081-0.070-0.203-0.098-0.283-0.088-0.119-0.181-0.273-0.272-0.417z"></path>
</svg>
